<svg width="39" height="39" viewBox="0 0 39 39" fill="none" xmlns="http://www.w3.org/2000/svg">
<path d="M19.5 39C30.2695 39 39 30.2695 39 19.5C39 8.73042 30.2695 0 19.5 0C8.73042 0 0 8.73042 0 19.5C0 30.2695 8.73042 39 19.5 39Z" fill="#1877F2"/>
<path d="M19.5 39C30.2695 39 39 30.2695 39 19.5C39 8.73042 30.2695 0 19.5 0C8.73042 0 0 8.73042 0 19.5C0 30.2695 8.73042 39 19.5 39Z" fill="black" fill-opacity="0.2"/>
<path d="M16.0001 32.8401C15.853 32.783 15.7294 32.6778 15.6495 32.5417C15.5697 32.4055 15.5382 32.2464 15.5602 32.0901C15.5602 28.4601 15.5602 24.82 15.5602 21.19V20.83H12.1301C11.6101 20.83 11.4102 20.64 11.4102 20.13C11.4102 18.71 11.4102 17.29 11.4102 15.87C11.4102 15.38 11.6101 15.18 12.1201 15.18H15.5602V14.86C15.5602 13.77 15.5602 12.67 15.5602 11.58C15.5805 10.0217 16.1427 8.51908 17.1501 7.33004C18.0857 6.22865 19.4121 5.53319 20.8501 5.39004C22.1701 5.26004 23.5001 5.30004 24.8501 5.27004H25.6802C25.7639 5.26047 25.8486 5.26992 25.9282 5.29769C26.0078 5.32547 26.0802 5.37085 26.1398 5.43044C26.1994 5.49004 26.2447 5.56229 26.2725 5.64187C26.3002 5.72145 26.3097 5.8063 26.3002 5.89004C26.3002 7.25004 26.3002 8.62001 26.3002 9.98001C26.3002 10.4 26.0801 10.59 25.6501 10.6C24.7101 10.6 23.7701 10.6 22.8301 10.6C22.585 10.5824 22.34 10.6352 22.1239 10.7521C21.9078 10.869 21.7295 11.0452 21.6101 11.26C21.4865 11.5061 21.415 11.775 21.4001 12.05C21.4001 13.05 21.4001 14.05 21.4001 15.14H25.4001C25.9601 15.14 26.1501 15.33 26.1501 15.88V20.08C26.1501 20.6 25.9502 20.79 25.4302 20.79H21.4302V32.01C21.4527 32.1692 21.4241 32.3314 21.3486 32.4734C21.2732 32.6153 21.1547 32.7297 21.0101 32.8L16.0001 32.8401Z" fill="white"/>
</svg>
