<svg width="60" height="60" viewBox="0 0 60 60" fill="none" xmlns="http://www.w3.org/2000/svg">
<path d="M40.0001 46L36.2858 42.2857L34.2858 44.2857L40.0001 50L50.0001 40L48.0001 38L40.0001 46ZM24.2858 32.8571H35.7143V35.7143H24.2858V32.8571ZM24.2858 25.7143H35.7143V28.5714H24.2858V25.7143ZM24.2858 18.5714H35.7143V21.4286H24.2858V18.5714Z" fill="white"/>
<path d="M30 47.1429H15.7143V41.4286H18.5714V38.5714H15.7143V31.4286H18.5714V28.5714H15.7143V21.4286H18.5714V18.5714H15.7143V12.8571H41.4286V35.7143H44.2857V12.8571C44.2857 11.2857 43 10 41.4286 10H15.7143C14.1429 10 12.8571 11.2857 12.8571 12.8571V18.5714H10V21.4286H12.8571V28.5714H10V31.4286H12.8571V38.5714H10V41.4286H12.8571V47.1429C12.8571 48.7143 14.1429 50 15.7143 50H30V47.1429Z" fill="white"/>
</svg>
