<svg width="27" height="27" viewBox="0 0 27 27" fill="none" xmlns="http://www.w3.org/2000/svg">
<path d="M24 5.54545V3.72727C24 3.00396 23.7127 2.31026 23.2012 1.7988C22.6897 1.28734 21.996 1 21.2727 1H6.72727C6.00396 1 5.31026 1.28734 4.7988 1.7988C4.28734 2.31026 4 3.00396 4 3.72727V5.54545H24Z" fill="white"/>
<path d="M4.41016 7.36377L10.3638 16.7192V24.3338C10.3639 24.6628 10.4532 24.9856 10.6223 25.2679C10.7914 25.5501 11.0339 25.7812 11.324 25.9365C11.6141 26.0917 11.9409 26.1654 12.2695 26.1495C12.5982 26.1337 12.9163 26.0289 13.1902 25.8465L16.8265 23.422C17.0756 23.256 17.2799 23.031 17.4212 22.7672C17.5625 22.5033 17.6365 22.2086 17.6365 21.9092V16.7192L23.5902 7.36377H4.41016Z" fill="white"/>
</svg>
