<svg width="60" height="60" viewBox="0 0 60 60" fill="none" xmlns="http://www.w3.org/2000/svg">
<path d="M41.25 25C48.845 25 55 30.0375 55 36.25C55 39.7425 53.055 42.8625 50 44.925V50L45.09 47.055C43.8317 47.3522 42.543 47.5015 41.25 47.5C33.655 47.5 27.5 42.4625 27.5 36.25C27.5 30.0375 33.655 25 41.25 25Z" stroke="white" stroke-width="2.5" stroke-linecap="round" stroke-linejoin="round"/>
<path d="M27.9925 39.245C26.2675 39.735 24.4175 40 22.5 40C20.2785 40.0048 18.0717 39.6398 15.97 38.92L10 42.5V35.4975C6.9075 32.7925 5 29.0875 5 25C5 16.715 12.835 10 22.5 10C31.955 10 39.6575 16.425 40 24.4625V25.045M25 20H25.025M17.5 20H17.525M37.5 35H37.525M45 35H45.025" stroke="white" stroke-width="2.5" stroke-linecap="round" stroke-linejoin="round"/>
</svg>
