<svg width="60" height="60" viewBox="0 0 60 60" fill="none" xmlns="http://www.w3.org/2000/svg">
<path d="M23.75 22.5H23.775M36.25 22.5H36.275M10 52.5V20C10 18.0109 10.7902 16.1032 12.1967 14.6967C13.6032 13.2902 15.5109 12.5 17.5 12.5H42.5C44.4891 12.5 46.3968 13.2902 47.8033 14.6967C49.2098 16.1032 50 18.0109 50 20V35C50 36.9891 49.2098 38.8968 47.8033 40.3033C46.3968 41.7098 44.4891 42.5 42.5 42.5H20L10 52.5Z" stroke="white" stroke-width="2.5" stroke-linecap="round" stroke-linejoin="round"/>
<path d="M23.75 32.5C24.5647 33.3315 25.5371 33.9921 26.6103 34.443C27.6835 34.894 28.8359 35.1263 30 35.1263C31.1641 35.1263 32.3165 34.894 33.3897 34.443C34.4629 33.9921 35.4353 33.3315 36.25 32.5" stroke="white" stroke-width="2.5" stroke-linecap="round" stroke-linejoin="round"/>
</svg>
